<svg viewBox="-118.24004305705063 -166.5928190425488 236.48008611410125 266.5928190425488" xmlns="http://www.w3.org/2000/svg" xmlns:xlink="http://www.w3.org/1999/xlink" version="1.1" class="jsx-2263963463 artboard-inner" style="width: 171.2px; height: 193px; max-height: 100%;" stroke="none" fill="#000000" stroke-width="1px"><g transform="translate(-121.5769644779333 77.93326157158236) scale(1.495036478890085)" fill="#232323" stroke="none" stroke-width="1px"><g id="line1" stroke="none" fill="#232323" stroke-width="1px"><path d="M13.104-22.176C13.320-24.840 15.624-28.224 20.232-28.224C25.416-28.224 27.288-24.912 27.432-22.176ZM28.224-12.888C27.216-10.080 24.984-8.208 21.024-8.208C16.776-8.208 13.104-11.088 12.888-15.120L37.800-15.120C37.872-15.336 38.016-16.992 38.016-18.504C38.016-30.024 31.176-36.864 20.088-36.864C10.800-36.864 2.232-29.520 2.232-18.000C2.232-5.976 11.016 1.080 20.880 1.080C29.952 1.080 35.640-4.104 37.368-10.296Z" stroke="none" fill="#232323" stroke-width="1px"></path><path d="M78.070-52.128L67.270-52.128L67.270-32.976C66.406-34.344 63.742-36.648 57.622-36.648C47.470-36.648 40.270-28.656 40.270-18.000C40.270-6.984 47.902 0.792 57.982 0.792C62.302 0.792 65.902-1.008 67.558-3.456C67.558-2.016 67.774-0.432 67.846 0L78.358 0C78.286-0.792 78.070-3.168 78.070-6.408ZM51.286-17.928C51.286-23.904 55.102-26.784 59.350-26.784C63.598-26.784 67.414-23.904 67.414-17.928C67.414-12.024 63.598-9.000 59.350-9.000C55.102-9.000 51.286-12.024 51.286-17.928Z" stroke="none" fill="#232323" stroke-width="1px"></path><path d="M83.203 2.016C84.211 8.424 90.763 14.760 101.059 14.760C114.451 14.760 120.211 5.832 120.211-4.464L120.211-35.784L109.771-35.784L109.771-31.968C108.763-33.840 105.667-36.432 99.835-36.432C90.043-36.432 83.203-28.368 83.203-18.936C83.203-9.000 90.331-1.512 99.835-1.512C105.019-1.512 108.115-3.600 109.411-5.544L109.411-3.888C109.411 2.592 106.027 5.256 100.555 5.256C96.451 5.256 93.571 2.736 92.851-0.720ZM101.851-11.016C97.459-11.016 94.147-14.040 94.147-18.936C94.147-23.832 97.747-26.856 101.851-26.856C105.955-26.856 109.483-23.832 109.483-18.936C109.483-14.040 106.315-11.016 101.851-11.016Z" stroke="none" fill="#232323" stroke-width="1px"></path><path d="M135.497-22.176C135.713-24.840 138.017-28.224 142.625-28.224C147.809-28.224 149.681-24.912 149.825-22.176ZM150.617-12.888C149.609-10.080 147.377-8.208 143.417-8.208C139.169-8.208 135.497-11.088 135.281-15.120L160.193-15.120C160.265-15.336 160.409-16.992 160.409-18.504C160.409-30.024 153.569-36.864 142.481-36.864C133.193-36.864 124.625-29.520 124.625-18.000C124.625-5.976 133.409 1.080 143.273 1.080C152.345 1.080 158.033-4.104 159.761-10.296Z" stroke="none" fill="#232323" stroke-width="1px"></path></g></g><g transform="translate(-74.16328429601518 -173.5127197721304) scale(1.504326276748987)" id="logomark" stroke="none" fill="#000000" stroke-width="1px"><g fill="#232323" stroke="none" stroke-width="1px"><path d="M49.3 4.6L10 27.3v45.4l39.3 22.7 39.3-22.7V27.3L49.3 4.6zm32.1 24.3L49.9 47.1 18.4 28.2l30.9-17.8 32.1 18.5zM15 32l32.7 19.6v37.1L15 69.8V32zm37.7 55.6V51.2l30.9-17.8v36.4L52.7 87.6z" stroke="none" fill="#232323" stroke-width="1px"></path></g></g></svg>